<svg version="1.1" id="Layer_1" xmlns="http://www.w3.org/2000/svg" xmlns:xlink="http://www.w3.org/1999/xlink" x="0px" y="0px"
	 width="100%" viewBox="0 0 1024 1024" enable-background="new 0 0 1024 1024" xml:space="preserve">
<path fill="#000000" opacity="1.000000" stroke="none" 
	d="
M936.125610,574.956665 
	C954.188477,610.575195 961.236816,648.324829 961.493042,687.810303 
	C954.353516,674.618896 947.547241,661.327942 939.390442,648.807312 
	C931.225037,636.273682 922.451599,624.230103 911.866699,613.388123 
	C946.557922,672.000305 951.241272,733.643555 930.945679,798.115234 
	C926.009521,754.460327 907.689270,717.545776 877.337097,687.680664 
	C908.163147,763.343689 894.154480,833.647949 848.763428,900.052734 
	C864.802734,843.016296 858.904968,789.764099 822.579346,741.517700 
	C824.812622,748.418823 827.401062,755.227783 829.219910,762.236450 
	C838.969604,799.804749 830.386841,834.146606 810.063110,866.134338 
	C794.958679,889.907410 773.900330,907.775391 751.095032,923.735352 
	C734.825378,935.121460 717.621460,944.976929 700.063721,954.219849 
	C698.674683,954.951233 697.354065,956.233093 694.300720,955.204651 
	C710.544312,935.467834 724.045532,914.552795 731.751831,890.381653 
	C739.514771,866.032715 741.667786,841.332275 736.873718,816.097961 
	C734.667114,831.215332 731.059326,845.896423 724.935730,859.930542 
	C714.026123,884.933655 696.479736,904.805664 676.572083,922.853699 
	C660.756653,937.191711 643.750488,950.068237 626.776367,962.976013 
	C625.643127,963.837830 624.679932,965.224304 621.488281,964.339478 
	C644.663025,941.511780 664.224304,916.768005 677.295288,887.239441 
	C645.437866,926.348877 604.369080,952.441162 559.142456,973.383850 
	C558.093750,970.009827 560.231750,968.934204 561.409485,967.538208 
	C577.448486,948.528442 591.103210,928.139526 598.016846,903.908264 
	C604.298950,881.890320 606.250305,859.778687 598.755493,837.582947 
	C597.346313,833.409851 597.365234,833.403442 593.972656,829.733093 
	C589.639282,853.254761 578.777710,872.918457 564.652954,891.566467 
	C564.869080,846.574585 546.832825,809.056641 518.766602,775.356140 
	C529.618469,809.875549 527.526917,843.445129 511.949829,876.645569 
	C508.216583,805.686218 475.380737,754.054382 411.584137,722.846802 
	C425.107300,734.684326 437.510864,747.560486 447.762878,763.266052 
	C444.627380,764.011230 443.413177,762.447632 442.120361,761.355774 
	C417.281738,740.376953 388.887573,727.188110 356.494476,723.773499 
	C340.949921,722.134888 325.211243,722.105835 309.707672,725.330261 
	C309.056671,725.465698 308.384491,725.569641 307.773590,725.815796 
	C304.603729,727.092834 299.872101,727.272888 299.270844,730.948608 
	C298.695404,734.466675 303.589294,734.831055 305.866943,736.828369 
	C307.440338,738.208191 309.755432,738.808472 310.448456,741.078247 
	C310.232086,741.429626 310.089539,741.908875 309.904724,741.925781 
	C296.930542,743.112549 286.486450,749.939819 276.010925,756.855164 
	C259.188263,767.960327 240.857056,774.178101 220.441437,773.343018 
	C209.499481,772.895447 199.609955,769.289124 190.341034,763.694336 
	C189.641479,763.272095 188.898819,762.824646 188.875015,761.660156 
	C189.455322,760.233887 190.709656,760.875793 191.757629,761.060120 
	C223.743927,766.686829 251.983032,758.902954 275.814514,736.776917 
	C302.750153,711.768799 335.262543,699.446777 370.841766,693.731323 
	C389.959717,690.660217 409.186249,689.172852 428.558228,690.048889 
	C431.123535,690.164917 433.684052,690.387878 436.252167,690.200317 
	C403.043945,680.220032 369.863861,681.700806 336.536346,691.249390 
	C336.849030,688.004578 339.006256,687.266724 340.570557,686.347107 
	C367.606567,670.454346 395.894348,657.228821 427.232513,653.136536 
	C475.357025,646.852173 519.927307,657.227600 560.164001,684.906677 
	C576.675537,696.265076 590.884460,709.905151 602.162354,726.536926 
	C603.233337,728.116394 604.024231,730.074646 607.245605,731.296997 
	C599.481079,709.882629 587.994324,691.846680 573.464539,675.712830 
	C558.822144,659.453979 542.060608,646.054993 520.057434,639.366089 
	C527.094421,636.036255 552.988770,641.212524 573.184937,649.311218 
	C589.982910,656.047180 605.106018,665.673584 619.987488,676.024719 
	C604.248657,653.339722 584.904175,634.180054 563.831848,616.618408 
	C542.861938,599.142090 519.938538,584.508606 496.599976,570.080139 
	C527.394653,567.006958 556.180420,573.999084 584.146423,586.454712 
	C584.326233,583.669189 582.699280,582.857605 581.525208,581.795288 
	C566.939209,568.598083 551.845032,555.994629 536.612488,543.558167 
	C527.962158,536.495605 517.545044,533.590149 506.879944,531.302429 
	C499.237396,529.663086 491.616272,527.914612 484.023407,526.059998 
	C482.184692,525.610840 480.097107,525.292114 478.775635,523.491455 
	C480.395142,521.470886 482.539062,521.909363 484.423950,521.997437 
	C509.710358,523.178589 532.797852,516.343201 554.304504,503.305786 
	C562.909973,498.089111 572.340942,494.761871 582.186951,492.652161 
	C583.446350,492.382324 584.836365,492.336334 585.981384,490.034454 
	C566.594177,488.835541 547.565430,487.463745 529.864319,479.467041 
	C512.366760,471.562225 496.111816,461.695038 479.869720,448.997925 
	C487.931580,446.801270 494.472717,449.765411 501.047363,449.500824 
	C495.666779,440.921814 456.763275,430.052612 440.031219,433.147034 
	C459.030792,442.678040 476.263062,452.822266 491.607056,465.739136 
	C491.397186,466.187531 491.187347,466.635956 490.977509,467.084381 
	C481.169739,465.400574 471.362000,463.716797 461.554230,462.032990 
	C461.434509,462.540283 461.314819,463.047546 461.195099,463.554810 
	C487.316528,478.304016 514.626648,489.794891 544.891052,492.782135 
	C544.811707,495.182373 543.208008,495.142578 542.063660,495.552826 
	C519.796936,503.534790 496.962769,505.159424 473.623627,501.903839 
	C460.142761,500.023376 447.060425,495.828186 433.195984,496.050751 
	C410.256958,496.419067 388.788727,502.843414 367.999329,511.562744 
	C344.722443,521.325317 321.186188,529.873901 296.071014,533.427246 
	C295.608429,533.492676 295.177704,533.783325 294.617157,534.513916 
	C312.617218,538.449768 331.002625,540.819458 348.529663,547.248962 
	C347.478607,549.339050 346.200470,548.923828 345.110107,548.851868 
	C322.092072,547.330994 299.191620,549.340149 276.276642,551.058289 
	C254.464691,552.693665 233.061218,556.485779 211.986267,562.374878 
	C192.474777,567.827148 175.622345,577.782471 160.570267,591.167053 
	C153.839020,597.152588 147.350723,603.365173 140.978119,609.719971 
	C138.192123,612.498108 136.872345,615.595093 137.128448,619.561890 
	C137.917465,631.783020 133.222687,640.997437 121.828835,646.206787 
	C118.292259,647.823730 117.903130,650.059814 119.087173,653.466614 
	C121.948570,661.699463 127.606758,667.218750 135.237396,670.978088 
	C150.342957,678.419861 166.447723,678.540833 182.674957,677.204590 
	C233.095520,673.052673 275.062927,650.057251 313.005524,618.295776 
	C322.072815,610.705627 330.780823,602.687439 339.699127,594.917786 
	C345.242920,590.088013 351.153564,585.764832 357.791504,582.522583 
	C369.355743,576.874451 380.684357,577.376099 391.590668,584.165955 
	C398.777863,588.640442 404.389404,594.789307 408.943634,601.881775 
	C411.386871,605.686768 411.407959,609.593201 409.405518,613.737305 
	C404.552887,623.779724 396.811646,631.232666 388.252563,638.007751 
	C372.112671,650.783325 353.988037,660.434509 336.422485,670.969299 
	C318.405304,681.774963 300.561127,692.842102 285.304382,707.503296 
	C280.356506,712.257996 276.152374,717.618225 272.804199,723.648315 
	C266.846344,734.378601 258.269348,742.442383 246.794266,746.736877 
	C230.308731,752.906433 213.404785,757.226257 195.516510,754.375122 
	C192.220291,753.849731 188.991302,753.040588 186.015594,751.437988 
	C177.089996,746.631226 176.052933,737.770752 183.631439,731.030334 
	C188.910583,726.335022 188.719757,726.492859 184.193604,721.021423 
	C177.815109,713.310669 174.530594,704.278687 174.812424,694.257080 
	C174.939560,689.735962 173.349304,687.974915 168.939102,687.722351 
	C157.415649,687.062744 146.177628,684.999695 135.399063,680.608582 
	C126.374069,676.931702 118.665787,671.642395 113.102524,663.563354 
	C110.872978,660.325623 108.117424,658.566284 104.142990,658.014954 
	C95.750870,656.850708 89.261192,652.468140 84.781517,645.240479 
	C79.892342,637.352173 73.752357,630.693542 66.177544,625.264221 
	C59.665630,620.596680 57.670055,613.966980 59.272545,606.280762 
	C60.930851,598.326843 65.846199,592.872192 73.770386,591.572327 
	C92.702431,588.466858 109.696770,593.307129 124.584877,605.507996 
	C126.788307,607.313721 128.756439,610.799438 132.280136,606.586243 
	C137.528687,600.310730 137.307648,598.842773 129.585312,595.785828 
	C116.202713,590.488403 102.284164,588.667236 87.968338,589.102051 
	C85.098572,589.189270 81.980873,590.048523 79.386024,588.003296 
	C78.980263,585.648926 80.858719,585.103577 82.112007,584.169189 
	C111.635796,562.158325 141.420319,540.485962 169.392792,516.473022 
	C188.271011,500.267059 206.313873,483.272644 221.096237,463.089264 
	C225.583221,456.962921 228.308380,450.495697 227.666733,442.695709 
	C225.326874,414.252228 234.927048,388.996338 248.761734,364.915497 
	C249.166107,364.211639 249.718781,363.578125 250.284256,362.990723 
	C250.452042,362.816437 250.900436,362.912231 251.328796,362.874756 
	C252.489029,364.708954 251.077377,366.331024 250.798111,368.009338 
	C250.505493,369.767883 249.908295,371.475739 249.109100,374.454987 
	C257.800507,362.791534 265.595795,352.059784 273.673676,341.545135 
	C292.381927,317.193420 312.256744,293.886047 335.527496,273.684326 
	C336.030823,273.247375 336.535278,272.810974 337.054138,272.392792 
	C346.299774,264.940552 346.261780,264.972076 338.664429,255.513962 
	C334.151367,249.895584 328.953583,244.997543 323.478424,240.351257 
	C322.270569,239.326263 320.544006,238.659790 320.265533,236.636047 
	C321.590485,235.084091 323.569855,235.364807 325.252136,235.045547 
	C333.518951,233.476624 336.333527,229.401779 335.424377,220.920288 
	C334.526550,212.544571 332.219635,204.596817 328.959534,196.900970 
	C320.915222,177.911407 315.399445,158.315491 314.060638,137.628601 
	C313.646973,131.237076 314.122559,124.974297 315.701813,118.825035 
	C317.852478,110.450562 324.918915,107.656494 332.297546,112.185593 
	C336.448944,114.733780 339.876282,118.177994 343.080353,121.808083 
	C368.315247,150.398010 398.282257,172.853088 431.992157,190.459351 
	C437.836945,193.511993 438.447815,193.373444 441.308319,187.177658 
	C456.902588,153.401016 470.084808,118.732681 479.695801,82.752556 
	C481.590179,75.660660 483.778473,68.651237 487.428345,62.236187 
	C492.895691,52.626686 500.676453,50.052280 510.667450,54.745342 
	C522.855042,60.470196 531.978271,70.036064 540.938538,79.713989 
	C564.600830,105.271408 583.909851,133.598114 595.904663,166.550156 
	C596.238281,167.466629 596.761719,168.314026 597.795715,170.405365 
	C599.674683,159.842072 598.906616,150.440781 598.022827,140.449493 
	C601.354858,141.677261 602.534729,143.845306 603.586243,146.041229 
	C609.168213,157.698532 613.582642,169.709778 613.253906,182.878311 
	C613.138794,187.489532 615.546997,188.033066 619.206177,187.914917 
	C639.898621,187.246780 660.474731,188.595596 680.963440,191.542725 
	C718.431458,196.932220 754.462463,207.407532 789.314636,222.053772 
	C795.608704,224.698776 801.798950,227.595154 807.993103,230.470398 
	C809.544556,231.190552 811.555237,231.502945 812.320740,234.628143 
	C775.192566,229.861298 738.512390,229.799118 702.013550,237.162277 
	C704.058289,238.822540 706.439026,238.628555 708.758362,238.748856 
	C732.376953,239.973801 755.976074,241.332886 779.128418,246.723770 
	C797.723816,251.053589 815.407349,257.839508 832.502686,266.247101 
	C833.188049,266.584167 834.136597,266.811493 833.915894,268.760406 
	C823.651428,267.510101 813.307312,266.777954 801.466553,267.419647 
	C835.178589,284.842651 864.940430,305.576782 890.674866,332.274261 
	C822.254822,304.536530 751.737976,299.457031 679.506042,311.458954 
	C686.018555,311.873596 692.525757,312.420074 699.044373,312.681122 
	C736.461670,314.179688 773.294678,319.062775 809.191101,330.288208 
	C850.659119,343.256012 886.300049,365.388306 916.326172,396.724365 
	C919.044250,399.561096 922.276917,401.904816 925.270569,404.477509 
	C924.770264,405.172791 924.270020,405.868103 923.769714,406.563416 
	C897.744446,393.006927 870.482361,383.093536 841.794434,377.185394 
	C813.031311,371.261841 783.968445,368.831451 754.498535,368.933075 
	C776.141724,379.194702 797.710815,389.332764 817.997131,401.999756 
	C838.384949,414.730042 856.726196,429.951782 874.044739,446.503418 
	C850.655579,415.434296 820.151428,393.336639 784.264832,376.441101 
	C788.848694,374.872650 791.988342,376.107910 795.076538,376.916718 
	C863.879883,394.937836 913.125244,436.330994 943.139954,500.766846 
	C953.455872,522.913147 960.851624,546.007751 966.156738,569.805847 
	C966.451355,571.127380 967.369995,572.595337 965.764099,574.811401 
	C941.305298,540.152161 911.319885,512.439209 871.257751,496.859680 
	C897.606750,518.877014 920.369568,543.789734 936.125610,574.956665 
M535.081970,252.349167 
	C528.742920,261.075684 527.126160,270.134766 533.131226,279.745117 
	C533.296875,280.010162 533.264587,280.393646 533.348511,280.715637 
	C538.180847,299.260193 541.058289,318.146851 543.181946,337.161713 
	C544.015503,344.625031 545.218079,345.367035 551.680176,341.449432 
	C564.894043,333.438538 572.858276,321.276581 577.262756,306.876862 
	C585.227783,280.836609 586.550903,254.265884 582.216492,227.402344 
	C581.659790,223.952209 581.105957,220.498138 580.404785,217.075806 
	C579.716064,213.714432 578.841309,210.391190 578.048157,207.051208 
	C579.947388,236.287170 578.207825,264.818512 567.126404,292.624817 
	C566.191528,291.860046 565.670227,291.633453 565.472839,291.243103 
	C559.456055,279.345673 552.705566,267.861694 545.909363,256.402557 
	C544.439392,253.923981 544.703247,251.392853 545.455505,248.695633 
	C551.405090,227.365585 553.912781,205.627609 552.719910,183.506790 
	C551.300232,157.179733 543.077820,133.296951 526.676392,112.455147 
	C521.148987,105.431366 514.488586,99.673958 506.466248,95.652351 
	C498.565369,91.691620 494.527740,93.277367 491.355591,101.524971 
	C488.666260,108.517250 486.197113,115.594040 483.524231,122.592850 
	C465.065033,170.927917 443.721924,217.831696 414.693207,260.906860 
	C413.520233,262.647369 412.590912,264.388947 413.733643,266.448151 
	C415.896667,270.345886 427.431213,273.021210 431.111389,270.397552 
	C439.738434,264.247253 445.780304,255.985870 450.354706,246.539398 
	C451.093811,245.013062 451.275024,242.836868 453.757721,242.814117 
	C455.721436,244.508163 455.222534,246.808807 455.245728,248.899536 
	C455.384125,261.382507 455.730286,273.877075 453.455261,286.250031 
	C452.907379,289.229706 453.671326,291.375244 457.329102,290.637817 
	C464.710419,289.149750 471.969147,287.346680 477.824799,282.120514 
	C479.133942,280.952087 480.260590,279.323883 482.334778,279.380096 
	C483.590759,280.585571 482.884155,281.868225 482.652344,283.127258 
	C481.589539,288.899811 479.514313,294.337189 477.145569,299.670898 
	C475.548248,303.267548 476.978302,304.729950 480.572021,304.571198 
	C482.896851,304.468506 485.233826,303.812469 487.526062,303.971375 
	C492.438354,304.311798 494.390472,301.849854 495.974274,297.455780 
	C500.921082,283.731354 502.723083,268.900848 510.399445,256.135437 
	C510.505402,255.959213 510.208466,255.540710 510.091522,255.212616 
	C507.784668,253.242706 505.086945,256.882416 502.320648,254.497574 
	C508.085419,248.378250 515.109009,244.008804 521.383606,238.616592 
	C511.544128,238.969055 503.244751,244.076019 493.942169,246.743271 
	C500.379517,236.026382 508.328827,226.326477 511.155853,213.802963 
	C500.251587,223.034225 490.102051,232.944031 476.290283,238.082382 
	C494.985626,221.931152 505.409027,201.997864 506.003296,177.223373 
	C494.894958,191.105072 484.865479,205.856674 467.832153,213.649292 
	C487.661957,183.460159 501.114319,151.530228 497.591095,114.143761 
	C513.892822,120.981628 538.539246,154.385483 537.379211,167.700760 
	C531.942749,161.411057 527.829102,154.539856 520.946655,149.570633 
	C521.154785,150.603867 521.135315,151.123535 521.354553,151.506622 
	C531.181274,168.679337 536.756775,187.210312 538.842590,206.811172 
	C540.453064,221.944534 541.113953,237.044083 535.081970,252.349167 
M749.730591,598.656799 
	C745.436523,582.347534 739.724670,566.546021 732.305054,551.404724 
	C712.710938,511.418488 683.468811,480.255859 645.628967,456.986389 
	C644.242004,456.133484 641.956604,455.949585 641.959900,453.082672 
	C667.994019,454.642426 692.889893,461.392181 718.196533,469.387604 
	C717.558899,466.301697 716.240906,465.737701 715.230286,464.924622 
	C700.792969,453.309387 685.427612,443.044434 669.369629,433.834412 
	C648.810669,422.042877 627.370605,412.124573 605.109924,403.956512 
	C602.562805,403.021881 599.000244,403.048523 597.862000,398.461578 
	C614.419128,396.503754 631.446777,398.155090 646.709229,390.132385 
	C643.259766,389.570892 639.839172,389.363739 636.450317,389.604156 
	C612.513977,391.302307 588.834778,389.397339 565.574036,383.710541 
	C552.011841,380.394897 538.867798,375.350739 525.287292,372.132080 
	C504.322693,367.163391 483.335510,366.894409 463.052307,375.620239 
	C459.246735,377.257385 455.096191,378.617432 452.031372,382.124023 
	C454.529968,383.228271 456.363464,381.963348 458.208710,381.495483 
	C480.364594,375.878143 501.608154,377.294312 522.126892,388.279877 
	C537.829102,396.686737 553.615112,404.998322 569.923828,412.212067 
	C592.520264,422.207062 615.612183,430.663788 640.216064,434.332550 
	C644.165100,434.921387 648.423340,434.185425 652.291931,436.616302 
	C649.163269,438.171936 649.149292,438.021729 645.990051,438.315277 
	C629.013489,439.892761 612.046997,439.143982 595.072632,438.314697 
	C593.290771,438.227631 591.074158,437.465698 589.435181,440.245056 
	C608.801025,452.552704 628.130310,464.586456 646.179443,478.498932 
	C664.326904,492.487122 681.424316,507.556763 695.886475,525.552246 
	C687.696472,522.234375 679.904724,518.312317 672.004333,514.622925 
	C663.851868,510.815826 655.490906,507.487244 646.829651,505.007019 
	C638.581177,502.644958 630.308594,500.295929 621.506958,500.919830 
	C646.529846,513.923889 670.325439,528.487244 692.126892,546.212646 
	C713.799561,563.833313 732.288757,584.541748 749.797241,607.186584 
	C751.321228,603.535583 750.487549,601.495667 749.730591,598.656799 
M601.190674,539.353577 
	C584.308777,533.305969 567.134216,528.914246 548.690979,530.052979 
	C573.345825,548.198730 595.789124,568.287476 614.283997,592.524597 
	C632.685608,616.639526 646.805420,643.013184 656.628113,671.782654 
	C645.123108,658.549255 633.201599,646.141235 616.338013,639.632202 
	C638.521851,668.247131 657.012939,698.901917 671.840088,731.937805 
	C676.131897,669.376770 662.452759,612.469116 619.840576,564.319031 
	C641.291504,572.893127 657.943237,587.442749 674.053894,602.821106 
	C657.764709,572.832581 633.678711,551.838318 601.190674,539.353577 
M292.421844,425.927582 
	C292.014801,429.098236 292.092957,432.391113 289.898743,435.159851 
	C286.430969,415.402466 291.521851,396.715668 298.107971,377.356018 
	C296.409668,378.065643 295.679047,378.150757 295.301483,378.560913 
	C286.316254,388.321838 278.842896,398.974945 279.308014,412.944000 
	C279.711823,425.070770 280.918823,437.174591 281.917786,449.276428 
	C282.550354,456.940216 280.865051,459.308105 273.242767,460.151245 
	C264.631287,461.103760 255.989059,461.573395 247.316315,461.205353 
	C245.494370,461.127991 243.666336,461.194092 241.841110,461.194092 
	C253.471024,467.026123 265.803589,468.857574 278.076935,471.034119 
	C281.415802,471.626160 283.357971,470.616577 285.316925,468.161774 
	C295.705994,455.143066 306.258728,442.254822 316.624786,429.218018 
	C320.183441,424.742554 324.735504,422.232788 330.263000,421.825378 
	C353.011597,420.148712 375.664185,417.585541 398.259918,414.539917 
	C403.380615,413.849731 408.663177,413.505951 413.719482,411.635284 
	C412.811890,409.874725 411.467285,410.257812 410.406219,410.086090 
	C391.242767,406.983826 371.918884,406.650665 352.611877,407.571045 
	C336.481781,408.339966 320.857697,411.481659 307.552734,421.661682 
	C306.873322,422.181549 306.059845,422.377655 304.967163,421.539642 
	C304.313904,418.309143 305.138336,414.927368 305.531097,411.474060 
	C305.901062,408.220917 308.280365,405.049683 306.164978,400.905029 
	C297.363403,406.942688 294.352478,415.658691 292.421844,425.927582 
M803.598755,428.708252 
	C815.102844,431.697693 826.606873,434.687134 838.914612,437.885406 
	C815.859070,420.461670 739.050964,392.345398 726.981812,396.646240 
	C727.494995,398.592346 729.368774,398.828552 730.774902,399.572998 
	C734.605713,401.601166 738.391663,403.672546 741.807190,406.383057 
	C743.828247,407.986938 745.863037,409.654572 745.433960,412.485718 
	C744.951111,415.671234 742.076294,416.552582 739.527832,417.087280 
	C734.817688,418.075470 729.983521,418.465027 725.261841,419.408112 
	C720.862305,420.286865 716.031799,419.449127 710.792847,422.776581 
	C738.716797,439.883972 763.219238,459.829681 786.323975,481.787292 
	C778.880432,459.884216 765.450195,441.721588 751.118591,423.789764 
	C759.628052,421.412231 783.501648,423.789581 803.598755,428.708252 
M239.917831,509.369995 
	C243.563599,507.732635 247.193207,506.058136 250.857697,504.463776 
	C280.854797,491.412140 311.222839,479.488586 344.147522,476.238800 
	C349.442749,475.716156 352.411194,473.519196 355.099426,469.159210 
	C364.815552,453.400726 378.042450,441.138733 393.993713,431.807129 
	C398.692322,429.058441 403.486755,426.473450 408.237274,423.813416 
	C398.404297,425.537262 389.032593,428.380524 379.586090,430.948608 
	C373.667389,432.557587 369.154907,435.820892 365.635101,440.796967 
	C361.307068,446.915619 356.636780,452.793243 352.346985,458.937378 
	C350.144287,462.092255 347.370636,463.615723 343.618469,463.883759 
	C337.811462,464.298553 332.001434,464.753937 326.220856,465.432404 
	C320.128479,466.147430 313.957886,466.501343 308.290771,469.368591 
	C282.425507,482.454895 256.894958,496.156555 231.834976,510.728851 
	C230.260620,511.644318 228.784149,512.728149 227.262146,513.733704 
	C227.442123,514.003540 227.622101,514.273376 227.802094,514.543213 
	C231.612137,512.926758 235.422180,511.310303 239.917831,509.369995 
M784.086487,852.615662 
	C796.309509,833.194214 806.436340,812.858765 811.195068,790.199829 
	C811.879700,786.940002 812.418884,783.638672 811.668457,779.043213 
	C785.502136,818.896301 762.626221,859.095703 744.028564,901.717041 
	C759.619751,887.428467 772.306030,870.853149 784.086487,852.615662 
M906.648438,643.783569 
	C893.124390,616.906616 873.892273,595.350891 847.425293,580.650696 
	C842.467224,577.896851 837.387939,575.112305 831.160767,575.066223 
	C873.967651,604.986450 904.066345,643.917236 917.531250,694.886169 
	C919.393860,676.893066 914.391663,660.424072 906.648438,643.783569 
M456.239044,341.601288 
	C471.175690,337.798248 486.586090,337.145355 501.798523,334.667908 
	C478.630859,329.446167 455.527191,324.737671 432.204834,336.178162 
	C432.559387,328.865326 437.073059,324.668701 439.672333,319.434631 
	C428.587433,318.353912 392.252594,335.057343 382.848694,345.123596 
	C394.608521,339.377167 407.104919,336.040161 419.895630,333.541748 
	C424.275940,332.686127 426.375854,334.019775 427.346436,338.376953 
	C429.056213,346.052643 433.359528,348.262604 441.044708,345.937927 
	C445.822357,344.492767 450.625397,343.131775 456.239044,341.601288 
M769.121460,341.196075 
	C793.256226,347.318695 817.206726,354.047089 840.498352,363.006622 
	C825.676392,351.079224 808.992065,342.786285 791.280518,336.113403 
	C762.708069,325.348572 732.316956,326.751678 702.856934,321.925201 
	C723.742920,331.578033 746.201294,335.691193 769.121460,341.196075 
M870.286255,517.214478 
	C862.728271,509.359192 854.856323,501.898254 845.189697,496.310120 
	C843.906921,498.664062 844.725525,500.196808 845.190063,501.757629 
	C847.492249,509.491486 852.448059,515.492126 857.792236,521.275452 
	C870.095581,534.589844 882.965515,547.390808 894.386047,561.507080 
	C898.781311,566.939819 903.123352,572.415588 907.489685,577.871765 
	C898.909912,555.502991 886.967407,535.296997 870.286255,517.214478 
M729.586670,262.759430 
	C751.063965,268.723907 771.780945,276.856079 792.459717,285.109283 
	C779.288147,275.442169 764.656982,268.739319 749.427246,263.331848 
	C729.992188,256.431213 709.289673,253.346008 690.358093,245.237671 
	C678.924011,240.340515 669.499207,243.402969 659.467896,247.453064 
	C658.512329,247.838882 657.089966,248.066544 657.512390,250.328857 
	C681.584045,251.960052 705.392822,256.127350 729.586670,262.759430 
M235.801636,698.759644 
	C231.132095,694.916443 227.023529,690.597778 224.659775,684.924316 
	C223.610641,682.406128 222.887009,679.366760 219.223877,680.941284 
	C215.891739,682.373535 210.543854,681.899414 211.203506,687.902771 
	C212.670868,701.256592 218.287491,712.338867 229.244080,720.472473 
	C231.289154,721.990601 233.152191,722.206604 235.021011,720.348083 
	C238.795227,716.594727 242.558060,712.829834 246.305695,709.049988 
	C248.226669,707.112549 247.864456,705.578491 245.424927,704.431152 
	C242.262024,702.943604 239.124100,701.407227 235.801636,698.759644 
M642.387939,545.053162 
	C656.092712,553.589844 668.402710,564.064514 681.562073,574.554260 
	C682.112122,561.475342 671.762146,545.922119 659.241821,540.344055 
	C647.960754,535.318054 636.209717,531.616455 623.985474,529.637512 
	C621.242004,529.193420 618.366089,528.659119 614.534363,529.846252 
	C624.578613,534.566956 633.271667,539.445801 642.387939,545.053162 
M679.604675,340.963348 
	C683.502014,340.604309 687.540710,341.668518 692.502502,339.946198 
	C672.755737,332.817688 653.602722,329.080994 633.784058,329.523285 
	C625.618103,329.705505 617.614014,335.842468 615.780701,342.893707 
	C624.287476,341.294006 632.339355,337.418304 641.523682,339.582916 
	C639.500244,343.326752 635.377258,344.499664 633.795776,349.526917 
	C648.873108,344.091858 663.569336,341.350739 679.604675,340.963348 
M499.538422,753.708435 
	C501.996582,755.615784 503.297638,755.061157 502.802338,751.926453 
	C502.550964,750.335205 501.820557,748.730347 500.969879,747.337280 
	C494.591064,736.891541 486.695251,727.678650 477.837067,719.269714 
	C477.014374,718.488647 476.230957,717.515198 474.339294,717.886292 
	C473.414703,724.929504 468.520172,723.349487 463.541718,722.642395 
	C459.224762,722.029175 454.866638,720.521667 448.768036,722.067688 
	C468.086823,730.077148 484.795074,739.764893 499.538422,753.708435 
M647.747314,278.889801 
	C660.938171,277.949860 674.139038,277.549622 687.904053,278.953186 
	C686.610840,276.648407 685.020935,276.476685 683.705261,276.069916 
	C672.229614,272.522278 660.436279,270.728516 648.529724,269.234344 
	C637.167847,267.808563 631.157410,275.338348 624.502869,282.558624 
	C631.944885,281.363220 639.386902,280.167847 647.747314,278.889801 
M343.948730,445.262848 
	C341.890808,446.687958 339.686188,447.272064 338.722260,444.340912 
	C337.056732,439.276459 331.360168,438.307373 328.871765,434.079803 
	C328.006104,432.609070 326.102020,433.016876 324.927765,434.227112 
	C322.950562,436.264862 321.761017,438.660919 323.480225,441.406708 
	C326.321472,445.944427 329.663025,450.107880 334.040833,453.255066 
	C336.811188,455.246674 340.218292,455.897949 342.911896,453.684784 
	C349.385925,448.365387 353.934875,441.519470 357.669281,433.929810 
	C354.215088,431.610352 351.117523,431.779785 348.211792,433.233124 
	C345.266663,434.706116 346.137238,437.413391 346.830231,439.842438 
	C347.503784,442.203247 346.320587,443.644775 343.948730,445.262848 
M562.428955,813.172302 
	C563.341248,815.800293 564.253540,818.428284 565.165833,821.056274 
	C563.501953,798.427429 555.768982,778.409485 541.104004,761.391724 
	C540.293274,761.746765 539.482544,762.101807 538.671753,762.456787 
	C549.341675,777.860718 556.555603,794.796631 562.428955,813.172302 
M205.038528,695.866028 
	C204.571564,693.923401 204.106689,691.980286 203.637054,690.038269 
	C203.226746,688.341675 202.556030,686.440918 200.551147,686.717102 
	C194.385361,687.566345 187.983337,686.618530 181.850555,688.790283 
	C185.957352,695.612183 196.125687,700.312378 202.956528,698.815491 
	C204.237488,698.534729 205.145660,698.052185 205.038528,695.866028 
z"/>
<path fill="#000000" opacity="1.000000" stroke="none" 
	d="
M232.653351,642.948364 
	C234.802078,643.448975 236.539764,643.869080 238.485443,644.339478 
	C231.170593,650.466553 188.824524,642.065002 182.261002,632.712280 
	C199.589767,635.373840 215.621460,640.691284 232.653351,642.948364 
z"/>
<path fill="#000000" opacity="1.000000" stroke="none" 
	d="
M220.217102,631.786011 
	C228.942825,632.204895 237.208633,632.588867 245.748749,632.985596 
	C239.179138,638.664246 197.358887,636.932922 190.088852,629.891113 
	C199.978302,630.511108 209.867752,631.131165 220.217102,631.786011 
z"/>
<path fill="#000000" opacity="1.000000" stroke="none" 
	d="
M224.338852,654.218628 
	C209.397354,656.650452 195.381439,653.755737 180.018250,650.186890 
	C183.389404,647.856873 185.687515,648.636414 187.782654,648.816406 
	C198.689987,649.753601 209.592590,650.761963 220.476944,651.930969 
	C221.950775,652.089233 224.549820,650.956360 224.338852,654.218628 
z"/>
<path fill="#000000" opacity="1.000000" stroke="none" 
	d="
M243.494019,619.642700 
	C245.850494,619.715332 247.703232,618.184265 249.717606,619.309387 
	C245.481781,624.953918 217.680801,627.592590 208.909439,622.321594 
	C220.294113,621.435791 231.678787,620.549988 243.494019,619.642700 
z"/>
<path fill="#000000" opacity="1.000000" stroke="none" 
	d="
M188.016373,663.258545 
	C180.090927,662.090942 172.662842,660.767944 165.685959,657.790649 
	C165.768219,657.343445 165.850464,656.896179 165.932724,656.448975 
	C180.568436,658.447937 195.204147,660.446899 209.839859,662.445862 
	C209.810944,662.918213 209.782043,663.390625 209.753143,663.862976 
	C202.665237,664.894287 195.563324,663.920532 188.016373,663.258545 
z"/>
</svg>